<svg width="28" height="28" viewBox="0 0 28 28" fill="none" xmlns="http://www.w3.org/2000/svg">
<g clip-path="url(#clip0_2440_15671)">
<path d="M19.5416 9.91667C19.9284 9.91667 20.2994 9.76302 20.5728 9.48953C20.8463 9.21604 21 8.84511 21 8.45833C21 8.07156 20.8463 7.70063 20.5728 7.42714C20.2994 7.15365 19.9284 7 19.5416 7C19.1549 7 18.7839 7.15365 18.5104 7.42714C18.237 7.70063 18.0833 8.07156 18.0833 8.45833C18.0833 8.84511 18.237 9.21604 18.5104 9.48953C18.7839 9.76302 19.1549 9.91667 19.5416 9.91667Z" fill="#2E382E"/>
<path fill-rule="evenodd" clip-rule="evenodd" d="M18.375 2.13854e-07C16.8569 -0.000319778 15.3602 0.35847 14.0072 1.04707C12.6543 1.73566 11.4834 2.73453 10.5902 3.96209C9.69697 5.18965 9.10682 6.61108 8.86791 8.11029C8.62899 9.60949 8.7481 11.144 9.2155 12.5883L0.5985 21.2077C0.215837 21.5901 0.000579488 22.1087 0 22.6497L0 25.9583C0 27.0865 0.914667 28 2.04167 28H3.79167C4.33315 28 4.85246 27.7849 5.23534 27.402C5.61823 27.0191 5.83333 26.4998 5.83333 25.9583V24.7917C5.83333 24.7143 5.86406 24.6401 5.91876 24.5854C5.97346 24.5307 6.04764 24.5 6.125 24.5H9.31583C9.43364 24.5022 9.55068 24.4806 9.65994 24.4365C9.7692 24.3924 9.86842 24.3267 9.95167 24.2433L10.2013 23.9948C10.2961 23.9 10.3713 23.7874 10.4225 23.6635C10.4738 23.5395 10.5001 23.4068 10.5 23.2727V21.5833C10.5 21.506 10.5307 21.4318 10.5854 21.3771C10.6401 21.3224 10.7143 21.2917 10.7917 21.2917H12.0587C12.6 21.2917 13.1203 21.077 13.5018 20.6932L15.4105 18.7845C16.7335 19.2116 18.1333 19.3471 19.5137 19.1815C20.894 19.016 22.2221 18.5534 23.4066 17.8255C24.5911 17.0977 25.6038 16.1219 26.3752 14.9653C27.1465 13.8086 27.6582 12.4986 27.8749 11.1254C28.0916 9.75217 28.0083 8.34828 27.6306 7.01032C27.2529 5.67237 26.5899 4.43211 25.6871 3.37486C24.7844 2.31762 23.6633 1.4685 22.401 0.885902C21.1387 0.303308 19.7652 0.0010766 18.375 2.13854e-07V2.13854e-07ZM10.5 9.625C10.5005 7.94215 11.0401 6.30371 12.0396 4.94987C13.0392 3.59603 14.4462 2.598 16.0543 2.10207C17.6624 1.60614 19.3871 1.6384 20.9755 2.19412C22.564 2.74985 23.9326 3.7998 24.8809 5.19008C25.8291 6.58035 26.307 8.23782 26.2446 9.91951C26.1821 11.6012 25.5826 13.2187 24.5339 14.5348C23.4852 15.8509 22.0425 16.7965 20.4172 17.2329C18.7919 17.6694 17.0696 17.5736 15.5027 16.9598C15.3442 16.8977 15.1711 16.8832 15.0045 16.918C14.8378 16.9528 14.685 17.0355 14.5647 17.1558L12.2652 19.4565C12.238 19.4836 12.2058 19.505 12.1704 19.5196C12.135 19.5342 12.097 19.5417 12.0587 19.5417H10.7917C10.2502 19.5417 9.73088 19.7568 9.34799 20.1397C8.9651 20.5225 8.75 21.0418 8.75 21.5833V22.75H6.125C5.58352 22.75 5.06421 22.9651 4.68132 23.348C4.29844 23.7309 4.08333 24.2502 4.08333 24.7917V25.9583C4.08333 26.0357 4.0526 26.1099 3.99791 26.1646C3.94321 26.2193 3.86902 26.25 3.79167 26.25H2.04167C1.96431 26.25 1.89013 26.2193 1.83543 26.1646C1.78073 26.1099 1.75 26.0357 1.75 25.9583V22.6497C1.74993 22.6113 1.75742 22.5734 1.77203 22.5379C1.78664 22.5025 1.8081 22.4703 1.83517 22.4432L10.8442 13.4353C10.9645 13.315 11.0472 13.1622 11.082 12.9955C11.1168 12.8289 11.1023 12.6558 11.0402 12.4973C10.6819 11.5821 10.4987 10.6078 10.5 9.625V9.625Z" fill="#2E382E"/>
</g>
<defs>
<clipPath id="clip0_2440_15671">
<rect width="28" height="28" fill="white"/>
</clipPath>
</defs>
</svg>
