<svg width="14" height="14" viewBox="0 0 14 14" fill="none" xmlns="http://www.w3.org/2000/svg">
<path d="M9.04171 6.99999C9.04171 7.26811 8.9889 7.5336 8.8863 7.78131C8.78369 8.02901 8.6333 8.25409 8.44372 8.44367C8.25413 8.63326 8.02906 8.78365 7.78135 8.88625C7.53365 8.98885 7.26816 9.04166 7.00004 9.04166C6.73193 9.04166 6.46644 8.98885 6.21873 8.88625C5.97102 8.78365 5.74595 8.63326 5.55636 8.44367C5.36678 8.25409 5.21639 8.02901 5.11379 7.78131C5.01118 7.5336 4.95837 7.26811 4.95837 6.99999C4.95837 6.45851 5.17348 5.93921 5.55636 5.55632C5.93925 5.17343 6.45856 4.95833 7.00004 4.95833C7.54152 4.95833 8.06083 5.17343 8.44372 5.55632C8.8266 5.93921 9.04171 6.45851 9.04171 6.99999Z" fill="#2E382E"/>
<path fill-rule="evenodd" clip-rule="evenodd" d="M6.99996 2.04167C4.99796 2.04167 3.42704 2.93651 2.30179 3.93167C1.17829 4.92626 0.474789 6.03867 0.192455 6.53451C0.110755 6.67625 0.067749 6.83698 0.067749 7.00059C0.067749 7.1642 0.110755 7.32493 0.192455 7.46667C0.474789 7.96251 1.17829 9.07551 2.30179 10.0683C3.42762 11.0635 4.99796 11.9583 6.99996 11.9583C9.00196 11.9583 10.5729 11.0635 11.6981 10.0683C12.8216 9.07434 13.5251 7.96192 13.8075 7.46609C13.8892 7.32434 13.9322 7.16361 13.9322 7.00001C13.9322 6.8364 13.8892 6.67567 13.8075 6.53392C13.5251 6.03809 12.8216 4.92567 11.6981 3.93226C10.5723 2.93651 9.00196 2.04167 6.99996 2.04167ZM0.952539 6.96792C1.20979 6.51642 1.85729 5.49326 2.88162 4.58792C3.90246 3.68317 5.27621 2.91667 6.99996 2.91667C8.72371 2.91667 10.0969 3.68376 11.1183 4.58734C12.1426 5.49326 12.7901 6.51642 13.0474 6.96734C13.0535 6.97714 13.057 6.98843 13.0573 7.00001C13.057 7.01159 13.0535 7.02287 13.0474 7.03267C12.7901 7.48417 12.1426 8.50676 11.1183 9.41267C10.0975 10.3163 8.72371 11.0833 6.99996 11.0833C5.27621 11.0833 3.90304 10.3163 2.88162 9.41267C1.85729 8.50676 1.20979 7.48417 0.952539 7.03267C0.946344 7.02288 0.942917 7.01159 0.942622 7.00001C0.943021 6.98862 0.946444 6.97755 0.952539 6.96792Z" fill="#2E382E"/>
</svg>
